Coordinates
version=1
nRows=9
nColumns=63
inDegrees=yes

Units are S.I. units (second, meters, Newtons, ...)
If the header above contains a line with 'inDegrees', this indicates whether rotational values are in degrees (yes) or radians (no).

endheader
time	pelvis_tilt	pelvis_list	pelvis_rotation	pelvis_tx	pelvis_ty	pelvis_tz	hip_flexion_r	hip_adduction_r	hip_rotation_r	knee_angle_r	knee_angle_r_beta	ankle_angle_r	subtalar_angle_r	mtp_angle_r	hip_flexion_l	hip_adduction_l	hip_rotation_l	knee_angle_l	knee_angle_l_beta	ankle_angle_l	subtalar_angle_l	mtp_angle_l	L5_S1_Flex_Ext	L5_S1_Lat_Bending	L5_S1_axial_rotation	L4_L5_Flex_Ext	L4_L5_Lat_Bending	L4_L5_axial_rotation	L3_L4_Flex_Ext	L3_L4_Lat_Bending	L3_L4_axial_rotation	L2_L3_Flex_Ext	L2_L3_Lat_Bending	L2_L3_axial_rotation	L1_L2_Flex_Ext	L1_L2_Lat_Bending	L1_L2_axial_rotation	L1_T12_Flex_Ext	L1_T12_Lat_Bending	L1_T12_axial_rotation	Abs_r3	Abs_r2	Abs_r1	Abs_t1	Abs_t2	neck_flexion	neck_bending	neck_rotation	arm_flex_r	arm_add_r	arm_rot_r	elbow_flex_r	pro_sup_r	wrist_flex_r	wrist_dev_r	arm_flex_l	arm_add_l	arm_rot_l	elbow_flex_l	pro_sup_l	wrist_flex_l	wrist_dev_l
0.576271	5.468527	-8.893094	84.201858	0.264970	0.793952	0.697235	19.878172	5.330045	0.531849	29.655895	0.517593	41.544859	1.490567	0.000000	16.961664	-3.047061	8.848131	26.251391	0.458173	43.470440	-18.800107	0.000000	-0.002540	1.181324	0.425694	-0.004717	1.571161	0.452300	-0.004173	2.872271	0.452300	-0.002903	2.872271	0.372482	-0.002359	2.408956	0.345876	-0.001451	1.829871	0.319270	-0.018144	13.363372	2.367581	0.000000	0.000000	10.555179	-9.970427	6.851011	-15.769701	-18.060470	1.363480	55.993154	84.088755	-12.347308	-2.929383	9.860628	-0.788364	1.438453	110.515317	81.629012	-11.209314	11.241120
0.593220	5.165229	-8.948472	83.075193	0.267422	0.795887	0.697138	19.871453	5.503991	1.515482	29.460204	0.514178	40.780116	0.622628	0.000000	16.632128	-3.154681	7.724262	25.664392	0.447928	43.226812	-18.726764	0.000000	-0.029845	1.151797	0.560842	-0.055425	1.531890	0.595895	-0.049032	2.800480	0.595895	-0.034110	2.800480	0.490737	-0.027714	2.348745	0.455684	-0.017053	1.784134	0.420632	-0.213178	13.029362	3.119236	0.000000	0.000000	9.598472	-10.063318	6.139908	-17.663578	-18.429605	-0.714480	59.368346	84.477115	-12.393263	-2.181434	9.663205	-1.240251	0.683772	110.880347	80.898324	-11.263033	10.622342
0.610169	4.721020	-9.023538	81.911636	0.270685	0.798350	0.697317	19.790586	5.651696	2.824344	29.060357	0.507199	39.811435	-0.576284	0.000000	16.270690	-3.212207	6.371030	24.923846	0.435003	42.749009	-18.624782	0.000000	-0.054951	1.098333	0.690923	-0.102050	1.460783	0.734105	-0.090279	2.670486	0.734105	-0.062804	2.670486	0.604557	-0.051028	2.239720	0.561375	-0.031399	1.701318	0.518192	-0.392511	12.424561	3.842704	0.000000	0.000000	8.690705	-9.873853	5.271576	-19.331492	-18.619076	-2.545913	63.799912	85.106769	-12.081718	-0.686934	8.973895	-2.157031	0.310740	110.482197	80.671707	-11.144942	9.710806
0.627119	4.137806	-9.112536	80.706815	0.274768	0.801195	0.697746	19.645420	5.765117	4.449689	28.483360	0.497128	38.698888	-2.043868	0.000000	15.889605	-3.213821	4.819615	24.062337	0.419967	42.085090	-18.482310	0.000000	-0.075515	1.019264	0.812371	-0.140240	1.355621	0.863144	-0.124064	2.478239	0.863144	-0.086307	2.478239	0.710824	-0.070124	2.078483	0.660051	-0.043150	1.578840	0.609278	-0.539399	11.530118	4.518163	0.000000	0.000000	7.867490	-9.351780	4.250062	-20.636076	-18.629139	-4.033514	69.092703	85.854427	-11.555326	1.382238	7.769718	-3.483758	0.242797	109.378789	80.882066	-10.926279	8.667368
0.644068	3.407898	-9.208360	79.463035	0.279620	0.804218	0.698386	19.460568	5.813616	6.323958	27.780479	0.484861	37.528817	-3.646030	0.000000	15.501530	-3.133944	3.124356	23.109253	0.403333	41.277604	-18.304615	0.000000	-0.088939	0.912635	0.918807	-0.165169	1.213805	0.976232	-0.146118	2.218982	0.976232	-0.101649	2.218982	0.803956	-0.082589	1.861046	0.746530	-0.050820	1.413672	0.689105	-0.635284	10.323914	5.110127	0.000000	0.000000	7.172983	-8.487656	3.051272	-21.446514	-18.445974	-5.094852	74.973268	86.558717	-10.949934	3.745147	6.053856	-5.151008	0.452305	107.662353	81.361501	-10.961217	7.483857
0.661017	2.564275	-9.316480	78.170416	0.285155	0.807197	0.699207	19.257721	5.819575	8.429695	26.991149	0.471084	36.350419	-5.326257	0.000000	15.134670	-2.998752	1.333639	22.130750	0.386254	40.380238	-18.109568	0.000000	-0.094821	0.782617	1.004421	-0.176091	1.040881	1.067197	-0.155781	1.902856	1.067197	-0.108371	1.902856	0.878868	-0.088050	1.595913	0.816092	-0.054181	1.212274	0.753316	-0.677295	8.853122	5.586289	0.000000	0.000000	6.634806	-7.265268	1.652926	-21.638021	-18.042652	-5.692968	81.141125	87.118988	-10.277676	6.208031	3.839760	-6.989397	0.758306	105.471422	82.078880	-11.209350	6.312414
0.677966	1.633227	-9.439990	76.848032	0.291210	0.809896	0.700155	19.063405	5.797257	10.730925	26.160208	0.456582	35.217284	-7.068280	0.000000	14.817489	-2.814869	-0.486642	21.185153	0.369751	39.432105	-17.915558	0.000000	-0.090957	0.634994	1.054054	-0.168917	0.844543	1.119932	-0.149434	1.543926	1.119932	-0.103955	1.543926	0.922297	-0.084463	1.294881	0.856419	-0.051973	0.983606	0.790540	-0.649700	7.183184	5.862332	0.000000	0.000000	6.223737	-5.755449	0.137601	-21.148960	-17.397666	-5.787190	87.319496	87.426968	-9.600584	8.615115	1.144593	-8.832798	1.003613	102.971406	83.009200	-11.628879	5.180709
0.694915	0.670721	-9.578174	75.440543	0.297619	0.812124	0.701222	18.897084	5.775702	13.132113	25.328073	0.442058	34.199501	-8.675220	0.000000	14.554928	-2.632663	-2.352352	20.322282	0.354691	38.482075	-17.720111	0.000000	-0.078010	0.481969	1.084320	-0.144872	0.641018	1.152090	-0.128162	1.171858	1.152090	-0.089158	1.171858	0.948780	-0.072440	0.982830	0.881010	-0.044575	0.746569	0.813240	-0.557217	5.452124	6.030661	0.000000	0.000000	5.855182	-4.045020	-1.352183	-20.059702	-16.540878	-5.466260	93.358365	87.569276	-8.942690	10.905889	-1.853591	-10.598762	1.195298	100.315032	84.119276	-12.083467	4.300579
0.711864	-0.270920	-9.716192	74.084182	0.304091	0.813702	0.702314	18.758762	5.749105	15.485799	24.540513	0.428313	33.359812	-10.133973	0.000000	14.370434	-2.452536	-4.078109	19.618423	0.342406	37.574128	-17.553090	0.000000	-0.059750	0.332283	1.042741	-0.110962	0.441936	1.107913	-0.098163	0.807913	1.107913	-0.068288	0.807913	0.912399	-0.055484	0.677592	0.847227	-0.034141	0.514706	0.782056	-0.426789	3.758853	5.799414	0.000000	0.000000	5.477274	-2.238091	-2.554234	-18.376622	-15.536163	-4.625727	99.078600	87.566401	-8.390819	13.177345	-5.183523	-12.167082	1.137854	97.795602	85.345991	-12.768257	3.679695
